<?xml version="1.0" encoding="UTF-8" standalone="no"?>
<!-- Created with Inkscape (http://www.inkscape.org/) -->

<svg
   version="1.1"
   id="svg182"
   width="800"
   height="343.01309"
   viewBox="0 0 799.99998 343.01308"
   sodipodi:docname="Logo Fédération Française Aviron - 2018.svg"
   inkscape:version="1.2 (dc2aeda, 2022-05-15)"
   xmlns:inkscape="http://www.inkscape.org/namespaces/inkscape"
   xmlns:sodipodi="http://sodipodi.sourceforge.net/DTD/sodipodi-0.dtd"
   xmlns="http://www.w3.org/2000/svg"
   xmlns:svg="http://www.w3.org/2000/svg">
  <sodipodi:namedview
     id="namedview265"
     pagecolor="#ffffff"
     bordercolor="#000000"
     borderopacity="0.25"
     inkscape:showpageshadow="2"
     inkscape:pageopacity="0.0"
     inkscape:pagecheckerboard="0"
     inkscape:deskcolor="#d1d1d1"
     showgrid="false"
     inkscape:zoom="0.830625"
     inkscape:cx="423.77728"
     inkscape:cy="381.64033"
     inkscape:window-width="1920"
     inkscape:window-height="1080"
     inkscape:window-x="0"
     inkscape:window-y="0"
     inkscape:window-maximized="0"
     inkscape:current-layer="svg182" />
  <defs
     id="defs186" />
  <g
     id="g1153">
    <path
       style="fill:#172963;fill-opacity:1;fill-rule:nonzero;stroke:none"
       d="m -42.837,25.941 v -3.964 c 3.032,1.558 6.467,2.442 10.11,2.442 12.24,0 22.161,-9.921 22.161,-22.161 0,-12.238 -9.921,-22.16 -22.161,-22.16 -3.643,0 -7.078,0.884 -10.11,2.443 v -4.12 -2.699 -2.158 -3.737 c 1.187,0 2.358,0.069 3.512,0.195 2.499,0.272 4.91,0.832 7.203,1.643 3.993,1.412 7.623,3.589 10.715,6.358 v -9.983 c 1.666,0.789 3.26,1.704 4.779,2.721 2.143,1.433 4.134,3.075 5.935,4.907 5.867,5.97 9.854,13.89 10.693,22.701 v -24.773 c 0.253,0.287 0.519,0.583 0.764,0.877 6.009,7.176 9.714,16.341 9.973,26.371 V 2.176 3.508 C 10.478,13.539 6.773,22.703 0.764,29.88 0.519,30.173 0.253,30.469 0,30.756 V 5.983 c -0.839,8.811 -4.826,16.732 -10.693,22.701 -1.801,1.833 -3.792,3.474 -5.935,4.908 -1.519,1.016 -3.113,1.931 -4.779,2.721 v -9.984 c -3.092,2.769 -6.722,4.946 -10.715,6.359 -2.293,0.811 -4.704,1.371 -7.203,1.642 -1.154,0.126 -2.325,0.195 -3.512,0.195 v -3.737 -2.157 -2.69"
       id="path874"
       transform="matrix(3.9809511,0,0,-3.9809511,714.68545,180.16949)" />
    <path
       style="fill:#172963;fill-opacity:1;fill-rule:nonzero;stroke:none"
       d="m 0,4.931 v -0.578 0 C 0.001,4.335 -0.001,4.316 0,4.295 -0.001,4.314 0.001,4.333 0,4.353 -0.01,4.546 -0.006,4.738 0,4.931"
       transform="matrix(3.9809511,0,0,-3.9809511,714.68545,180.16949)"
       id="path872" />
    <path
       style="fill:#172963;fill-opacity:1;fill-rule:nonzero;stroke:none"
       d="M 0,0 V 0 -0.578 C -0.006,-0.386 -0.01,-0.193 0,0"
       transform="matrix(3.9809511,0,0,-3.9809511,714.68545,180.16949)"
       id="path230" />
    <path
       style="fill:#172963;fill-opacity:1;fill-rule:nonzero;stroke:none"
       d="M 0,0 V -1.206 -3.114 -5.85 -9.392 -9.393 c 2.049,-0.127 4.887,0.139 7.535,0.653 1.116,0.216 2.2,0.486 3.178,0.78 C 6.465,-5.572 2.856,-2.89 0,0"
       transform="matrix(3.9809511,0,0,-3.9809511,501.5047,234.38646)"
       id="path234" />
    <path
       style="fill:#172963;fill-opacity:1;fill-rule:nonzero;stroke:none;stroke-width:3.98095"
       d="M 501.5047,108.62703 V 103.82201 96.230348 85.338455 71.233949 c 8.15697,-0.505587 19.45492,0.553347 29.99648,2.595587 4.44273,0.863866 8.75808,1.934733 12.65145,3.10912 -16.91108,9.506506 -31.27833,20.183412 -42.64793,31.688374"
       id="path238" />
    <path
       style="fill:#b3d0da;fill-opacity:1;fill-rule:nonzero;stroke:none"
       d="m 0,0 v 0 c -0.543,0.615 -1.067,1.246 -1.575,1.891 -0.559,0.71 -1.09,1.442 -1.604,2.186 -2.647,-0.514 -5.485,-0.78 -7.534,-0.653 V 3.425 2.156 -1.902 C -7.363,-3.086 -3.756,-3.737 0,-3.737 v 0 z"
       transform="matrix(3.9809511,0,0,-3.9809511,544.15383,285.40992)"
       id="path242" />
    <path
       style="fill:#b3d0da;fill-opacity:1;fill-rule:nonzero;stroke:none;stroke-width:3.98095"
       d="m 586.80932,343.01309 h 0.056 c 14.626,0 29.04894,-1.89892 42.60014,-5.36235 -15.05587,-3.88938 -29.5108,-9.84886 -42.65587,-17.44452 z"
       id="path246" />
    <path
       style="fill:#b3d0da;fill-opacity:1;fill-rule:nonzero;stroke:none"
       d="m 0,0 c -1.801,-1.832 -3.792,-3.474 -5.935,-4.907 -1.52,-1.017 -3.113,-1.931 -4.779,-2.721 v -7.599 c 3.803,0.977 7.396,2.474 10.714,4.392 z"
       transform="matrix(3.9809511,0,0,-3.9809511,672.11785,277.03598)"
       id="path250" />
    <path
       style="fill:#b3d0da;fill-opacity:1;fill-rule:nonzero;stroke:none"
       d="m 0,0 c -0.259,-10.03 -3.964,-19.195 -9.973,-26.371 -0.245,-0.294 -0.51,-0.59 -0.764,-0.877 v -11.703 c 4.048,2.711 7.682,6.021 10.737,9.801 z"
       transform="matrix(3.9809511,0,0,-3.9809511,757.42852,176.81037)"
       id="path254" />
    <path
       style="fill:#b3d0da;fill-opacity:1;fill-rule:nonzero;stroke:none"
       d="M 0,0 H -6.333 C -3.255,-2.745 0.368,-4.909 4.336,-6.314 3.04,-4.711 1.831,-3.02 0.746,-1.257 0.49,-0.842 0.243,-0.423 0,0"
       transform="matrix(3.9809511,0,0,-3.9809511,484.2433,267.84756)"
       id="path258" />
    <path
       style="fill:#b3d0da;fill-opacity:1;fill-rule:nonzero;stroke:none"
       d="m 0,0 v 0 c -0.543,-0.615 -1.067,-1.246 -1.575,-1.891 -0.559,-0.71 -1.09,-1.442 -1.604,-2.185 -2.647,0.513 -5.485,0.779 -7.534,0.652 v 1.268 4.058 C -7.363,3.086 -3.756,3.737 0,3.737 Z"
       transform="matrix(3.9809511,0,0,-3.9809511,544.15383,57.603576)"
       id="path262" />
    <path
       style="fill:#b3d0da;fill-opacity:1;fill-rule:nonzero;stroke:none;stroke-width:3.98095"
       d="m 501.5047,50.030216 v 0 -14.331426 c 1.71181,-0.81212 3.44353,-1.59636 5.19116,-2.344787 2.3846,-1.01912 4.809,-1.958626 7.25329,-2.854346 2.42839,-0.89172 4.88066,-1.723747 7.36476,-2.492067 0.52947,-0.163227 7.47623,-2.33284 8.00569,-2.488093 0,0 -13.9373,8.829746 -27.8149,24.510719"
       id="path266" />
    <path
       style="fill:#b3d0da;fill-opacity:1;fill-rule:nonzero;stroke:none"
       d="M 0,0 H 0.014 C 3.688,0 7.311,-0.477 10.715,-1.346 6.933,-2.324 3.302,-3.821 0,-5.729 Z"
       transform="matrix(3.9809511,0,0,-3.9809511,586.80932,4.12081e-6)"
       id="path270" />
    <path
       style="fill:#b3d0da;fill-opacity:1;fill-rule:nonzero;stroke:none"
       d="m 0,0 c -1.801,1.832 -3.792,3.474 -5.935,4.907 -1.52,1.017 -3.113,1.931 -4.779,2.721 v 7.599 C -6.911,14.25 -3.318,12.754 0,10.836 v -10e-4 z"
       transform="matrix(3.9809511,0,0,-3.9809511,672.11785,65.977496)"
       id="path274" />
    <path
       style="fill:#b3d0da;fill-opacity:1;fill-rule:nonzero;stroke:none"
       d="m 0,0 c -0.259,10.03 -3.964,19.194 -9.973,26.371 -0.245,0.293 -0.51,0.589 -0.764,0.876 V 38.951 C -6.689,36.239 -3.055,32.93 0,29.15 v -10e-4 10e-4 z"
       transform="matrix(3.9809511,0,0,-3.9809511,757.42852,166.20113)"
       id="path278" />
    <path
       style="fill:#b3d0da;fill-opacity:1;fill-rule:nonzero;stroke:none"
       d="M 0,0 H -6.333 C -3.255,2.745 0.368,4.909 4.336,6.313 3.04,4.71 1.831,3.019 0.746,1.256 0.49,0.842 0.243,0.422 0,0"
       transform="matrix(3.9809511,0,0,-3.9809511,484.2433,75.163949)"
       id="path282" />
    <path
       style="fill:#b3d0da;fill-opacity:1;fill-rule:nonzero;stroke:none"
       d="m 0,0 v 0 -3.587 c 0.43,-0.205 0.865,-0.402 1.304,-0.59 0.599,-0.256 1.208,-0.491 1.822,-0.717 0.61,-0.224 1.226,-0.433 1.85,-0.627 0.133,-0.04 1.878,-0.584 2.011,-0.624 z"
       transform="matrix(3.9809511,0,0,-3.9809511,501.5047,292.98328)"
       id="path286" />
    <path
       style="fill:#4dbc97;fill-opacity:1;fill-rule:nonzero;stroke:none"
       d="M 0,0 C 1.801,0 3.599,0.138 5.332,0.384 2.761,1.873 0.327,3.61 -1.871,5.582 -3.025,5.457 -4.196,5.387 -5.383,5.387 V 0.39 C -3.625,0.137 -1.829,0 0,0"
       transform="matrix(3.9809511,0,0,-3.9809511,565.5825,321.73212)"
       id="path290" />
    <path
       style="fill:#4dbc97;fill-opacity:1;fill-rule:nonzero;stroke:none"
       d="m 0,0 c -3.091,-2.769 -6.722,-4.946 -10.715,-6.358 v -6.841 c 3.783,0.538 7.383,1.637 10.715,3.216 z"
       transform="matrix(3.9809511,0,0,-3.9809511,629.46439,267.65885)"
       id="path294" />
    <path
       style="fill:#4dbc97;fill-opacity:1;fill-rule:nonzero;stroke:none"
       d="m 0,0 v 0 -10.836 c 4.033,2.331 7.628,5.295 10.693,8.764 v 26.404 c -0.028,-0.548 0.051,-1.091 0,-1.631 C 9.854,13.89 5.867,5.969 0,0"
       transform="matrix(3.9809511,0,0,-3.9809511,672.11785,277.034)"
       id="path298" />
    <path
       style="fill:#4dbc97;fill-opacity:1;fill-rule:nonzero;stroke:none"
       d="M 0,0 C 1.801,0 3.599,-0.138 5.332,-0.384 2.761,-1.872 0.327,-3.61 -1.871,-5.582 c -1.154,0.125 -2.325,0.195 -3.512,0.195 V -0.39 C -3.625,-0.137 -1.829,0 0,0"
       transform="matrix(3.9809511,0,0,-3.9809511,565.5825,21.280977)"
       id="path302" />
    <path
       style="fill:#4dbc97;fill-opacity:1;fill-rule:nonzero;stroke:none"
       d="m 0,0 c -3.091,2.769 -6.722,4.946 -10.715,6.358 v 6.841 C -6.932,12.661 -3.332,11.562 0,9.983 Z"
       transform="matrix(3.9809511,0,0,-3.9809511,629.46439,75.354629)"
       id="path306" />
    <path
       style="fill:#4dbc97;fill-opacity:1;fill-rule:nonzero;stroke:none"
       d="M 0,0 V 0 10.836 C 4.033,8.505 7.628,5.541 10.693,2.072 v -26.403 c -0.028,0.547 0.051,1.09 0,1.63 C 9.854,-13.89 5.867,-5.969 0,0"
       transform="matrix(3.9809511,0,0,-3.9809511,672.11785,65.979496)"
       id="path310" />
    <path
       style="fill:#4dbc97;fill-opacity:1;fill-rule:nonzero;stroke:none"
       d="M 0,0 C 0,11.468 -4.007,21.998 -10.694,30.273 V -30.691 C -4.007,-22.416 0,-11.885 0,-0.417 0,-0.348 -0.004,-0.279 -0.004,-0.208 -0.004,-0.139 0,-0.07 0,0"
       transform="matrix(3.9809511,0,0,-3.9809511,799.99998,170.67572)"
       id="path314" />
  </g>
  <g
     id="g1127">
    <path
       id="path742"
       style="fill:#172963;fill-opacity:1;fill-rule:nonzero;stroke:none"
       d="M 2.6011303 9.2390701 L -7.8627636 -4.8720757 L -3.2892256 -4.8720757 L -1.646147 -2.4381214 L 7.6368302 -2.4381214 L 9.2799088 -4.8720757 L 13.853937 -4.8720757 L 3.3910248 9.2390701 L 2.6011303 9.2390701 z M 2.9960775 4.4378855 L 5.9908079 -0.00024209039 L -0.00012465614 -0.00024209039 L 2.9960775 4.4378855 z "
       transform="matrix(3.9809511,0,0,-3.9809511,184.77784,180.24513)" />
    <path
       style="fill:#172963;fill-opacity:1;fill-rule:nonzero;stroke:none"
       d="M 0,0 V -8.45 L -13.524,0 h -0.955 v -14.111 h 3.697 v 8.54 l 13.619,-8.54 H 3.698 V 0 Z"
       transform="matrix(3.9809511,0,0,-3.9809511,585.57682,143.46433)"
       id="path318" />
    <path
       style="fill:#172963;fill-opacity:1;fill-rule:nonzero;stroke:none;stroke-width:3.98095"
       d="m 322.1107,199.64192 h 14.72156 v -56.1752 H 322.1107 Z"
       id="path320" />
    <path
       style="fill:#172963;fill-opacity:1;fill-rule:nonzero;stroke:none"
       d="m 0,0 -6.284,9.099 h -4.575 L -0.395,-5.012 h 0.79 L 10.858,9.099 H 6.284 Z"
       transform="matrix(3.9809511,0,0,-3.9809511,268.26317,179.6874)"
       id="path324" />
    <path
       style="fill:#4dbc97;fill-opacity:1;fill-rule:nonzero;stroke:none;stroke-width:3.98095"
       d="m 83.090416,199.64072 h 14.97236 V 178.72879 H 147.53405 V 166.77797 H 98.062776 v -11.7637 H 147.53405 V 143.46552 H 83.090416 Z"
       id="path332" />
    <path
       style="fill:#4dbc97;fill-opacity:1;fill-rule:nonzero;stroke:none;stroke-width:3.98095"
       d="M 4.6458e-6,199.64072 H 14.972364 V 178.72879 H 64.447616 V 166.77797 H 14.972364 v -11.7637 H 64.447616 V 143.46552 H 4.6458e-6 Z"
       id="path336" />
    <path
       id="path750"
       style="fill:#172963;fill-opacity:1;fill-rule:nonzero;stroke:none"
       d="M -3.6988144 3.0029474 L -3.6988144 -11.145976 L -4.7727288e-05 -11.145976 L -4.7727288e-05 -6.443896 L -0.0010289627 -6.4301587 L 6.292124 -6.4301587 L 9.5051792 -11.145976 L 13.831937 -11.145976 L 10.058105 -6.0577799 C 10.689105 -5.8477801 11.253981 -5.5559116 11.73798 -5.161912 C 12.775979 -4.3159129 13.295201 -3.1280824 13.295201 -1.597084 C 13.295201 -0.13908541 12.775979 0.99202874 11.73798 1.7960279 C 10.698981 2.6010271 9.3182404 3.0029474 7.5932421 3.0029474 L -3.6988144 3.0029474 z M -4.7727288e-05 -0.00012340016 L 7.8562132 -0.00012340016 C 8.3452127 -0.00012340016 8.7660635 -0.16989428 9.1190631 -0.50889394 C 9.4720628 -0.8488936 9.647949 -1.2910716 9.647949 -1.8330711 C 9.647949 -2.3640705 9.4720628 -2.7981144 9.1190631 -3.1381141 C 8.7660635 -3.4781138 8.3452127 -3.6478659 7.8562132 -3.6478659 L -4.7727288e-05 -3.6478659 L -4.7727288e-05 -0.00012340016 z "
       transform="matrix(3.9809511,0,0,-3.9809511,372.59394,155.26904)" />
    <path
       style="fill:#172963;fill-opacity:1;fill-rule:nonzero;stroke:none"
       d="m 0,0 c -0.446,0.903 -1.083,1.658 -1.913,2.265 -0.829,0.607 -1.834,1.067 -3.016,1.376 -1.183,0.311 -2.51,0.465 -3.984,0.465 -1.474,0 -2.804,-0.154 -3.993,-0.465 -1.19,-0.309 -2.203,-0.769 -3.038,-1.376 -0.125,-0.09 -0.216,-0.208 -0.332,-0.305 l 2.622,-2.342 c 0.047,0.05 0.086,0.103 0.136,0.152 0.287,0.277 0.644,0.518 1.069,0.724 0.424,0.208 0.928,0.369 1.511,0.486 0.583,0.117 1.258,0.175 2.025,0.175 1.144,0 2.087,-0.126 2.826,-0.38 0.74,-0.254 1.325,-0.584 1.754,-0.991 0.428,-0.407 0.727,-0.865 0.895,-1.375 0.167,-0.511 0.25,-1.022 0.25,-1.535 0,-0.514 -0.083,-1.025 -0.25,-1.536 -0.168,-0.51 -0.467,-0.969 -0.895,-1.376 -0.429,-0.407 -1.014,-0.736 -1.754,-0.989 -0.739,-0.255 -1.682,-0.381 -2.826,-0.381 -0.767,0 -1.442,0.058 -2.025,0.175 -0.583,0.116 -1.087,0.277 -1.511,0.48 -0.425,0.204 -0.782,0.442 -1.069,0.715 -0.289,0.274 -0.517,0.569 -0.69,0.886 -0.171,0.316 -0.292,0.649 -0.364,0.995 -0.072,0.347 -0.108,0.691 -0.108,1.031 0,0.333 0.036,0.672 0.108,1.015 0.022,0.106 0.058,0.208 0.089,0.311 h -3.956 c -0.071,-0.423 -0.116,-0.861 -0.116,-1.326 0,-1.181 0.225,-2.223 0.678,-3.127 0.453,-0.903 1.097,-1.659 1.933,-2.266 0.835,-0.606 1.848,-1.066 3.038,-1.375 1.189,-0.311 2.519,-0.465 3.993,-0.465 1.474,0 2.801,0.154 3.984,0.465 1.182,0.309 2.187,0.769 3.016,1.375 0.83,0.607 1.467,1.363 1.913,2.266 0.446,0.904 0.667,1.946 0.667,3.127 C 0.667,-1.946 0.446,-0.904 0,0"
       transform="matrix(3.9809511,0,0,-3.9809511,511.55781,159.10628)"
       id="path344" />
  </g>
</svg>
